 <svg version="1.0" xmlns="http://www.w3.org/2000/svg"  width="112.000000pt" height="112.000000pt" viewBox="0 0 112.000000 112.000000"  preserveAspectRatio="xMidYMid meet">  <g transform="translate(0.000000,112.000000) scale(0.100000,-0.100000)" fill="currentColor" stroke="currentColor"> <path d="M287 1041 c-13 -16 -27 -45 -31 -64 -7 -39 16 -160 42 -219 l17 -40 -32 -34 c-39 -42 -70 -123 -79 -208 -6 -61 -9 -66 -30 -66 -17 0 -24 -6 -24 -20 0 -17 6 -20 28 -18 38 4 45 -37 8 -54 -40 -18 -34 -42 8 -34 30 6 34 4 40 -20 4 -14 29 -48 55 -74 115 -115 339 -120 465 -10 20 18 44 46 52 63 12 21 19 26 27 18 6 -6 17 -11 24 -11 18 0 16 30 -3 45 -26 19 -9 57 24 53 35 -4 43 27 9 36 -22 5 -24 10 -24 78 -1 89 -30 173 -78 224 -28 29 -33 40 -25 55 48 89 63 232 30 286 -64 105 -174 -3 -205 -202 l-7 -41 -46 1 c-43 0 -47 2 -50 25 -15 153 -77 260 -151 260 -10 0 -30 -13 -44 -29z m84 -32 c32 -32 58 -98 64 -165 12 -112 4 -104 99 -104 l85 0 7 58 c11 94 40 175 75 207 l31 30 19 -24 c28 -34 24 -98 -11 -203 -16 -49 -30 -94 -30 -99 0 -6 14 -22 30 -36 51 -42 73 -97 78 -193 l4 -85 -51 3 c-41 3 -51 1 -51 -12 0 -11 9 -16 33 -16 41 0 62 -13 54 -34 -5 -13 -12 -14 -32 -6 -37 14 -65 12 -65 -4 0 -8 16 -20 35 -26 19 -6 35 -16 35 -21 0 -22 -74 -88 -121 -108 -72 -31 -133 -36 -209 -17 -79 20 -131 54 -166 106 -27 41 -25 60 7 60 11 0 19 7 19 16 0 12 -7 15 -30 12 -19 -3 -31 0 -34 9 -6 14 17 28 31 20 14 -9 36 9 29 22 -4 6 -21 11 -38 11 l-31 0 7 58 c10 87 33 146 77 196 l40 46 -24 62 c-44 110 -52 199 -22 248 10 16 33 12 56 -11z"/> <path d="M317 556 c-11 -27 31 -66 69 -66 35 0 84 35 84 60 0 21 -29 21 -49 1 -26 -26 -47 -27 -61 -1 -12 23 -35 26 -43 6z"/> <path d="M557 563 c-25 -25 19 -73 67 -73 36 0 86 32 86 55 0 25 -21 28 -44 6 -28 -26 -48 -27 -71 -1 -19 21 -28 24 -38 13z"/> <path d="M428 443 c-27 -7 -29 -31 -4 -60 22 -27 43 -93 28 -93 -4 0 -22 9 -40 20 -35 21 -52 19 -52 -6 0 -22 78 -54 130 -54 80 0 162 52 131 83 -8 8 -17 5 -34 -12 -13 -12 -41 -24 -61 -28 l-36 -6 0 38 c0 28 6 42 25 57 24 19 32 42 18 51 -14 8 -87 15 -105 10z"/> </g> </svg> 